<svg width="17" height="19" viewBox="0 0 17 19" fill="none" xmlns="http://www.w3.org/2000/svg">
<path d="M13.1939 2.97667C12.4964 2.15293 12.112 1.09507 12.1122 0H8.95918V13.0889C8.93486 13.7972 8.64579 14.4681 8.15282 14.9603C7.65986 15.4525 7.00148 15.7277 6.31633 15.7278C4.86735 15.7278 3.66327 14.5033 3.66327 12.9833C3.66327 11.1678 5.35714 9.80611 7.10204 10.3656V7.03C3.58163 6.54444 0.5 9.37333 0.5 12.9833C0.5 16.4983 3.31633 19 6.30612 19C9.5102 19 12.1122 16.3083 12.1122 12.9833V6.34389C13.3908 7.29373 14.9259 7.80335 16.5 7.80056V4.53889C16.5 4.53889 14.5816 4.63389 13.1939 2.97667Z" fill="black"/>
</svg>
