<svg width="27" height="26" viewBox="0 0 27 26" fill="none" xmlns="http://www.w3.org/2000/svg">
<path fill-rule="evenodd" clip-rule="evenodd" d="M13.5 4.33398C14.4263 4.33398 15.3763 4.35782 16.2972 4.39682L17.3848 4.44882L18.4259 4.51057L19.4009 4.57665L20.2914 4.64598C21.2578 4.71995 22.1672 5.13234 22.8595 5.81061C23.5518 6.48888 23.9828 7.38957 24.0766 8.35423L24.1199 8.81465L24.2012 9.80048C24.277 10.8221 24.3333 11.9357 24.3333 13.0007C24.3333 14.0656 24.277 15.1792 24.2012 16.2008L24.1199 17.1867C24.1058 17.3448 24.0918 17.4976 24.0766 17.6471C23.9828 18.6119 23.5516 19.5127 22.8591 20.191C22.1665 20.8693 21.2569 21.2816 20.2903 21.3553L19.402 21.4236L18.427 21.4907L17.3848 21.5525L16.2972 21.6045C15.3653 21.645 14.4327 21.6659 13.5 21.6673C12.5673 21.6659 11.6347 21.645 10.7028 21.6045L9.61517 21.5525L8.57409 21.4907L7.59909 21.4236L6.70859 21.3553C5.7422 21.2813 4.83285 20.869 4.14052 20.1907C3.44818 19.5124 3.01721 18.6117 2.92342 17.6471L2.88009 17.1867L2.79884 16.2008C2.716 15.1361 2.67192 14.0686 2.66667 13.0007C2.66667 11.9357 2.72301 10.8221 2.79884 9.80048L2.88009 8.81465C2.89417 8.65648 2.90826 8.50373 2.92342 8.35423C3.01717 7.38974 3.44799 6.48918 4.1401 5.81094C4.83222 5.13269 5.74131 4.7202 6.7075 4.64598L7.59692 4.57665L8.57192 4.51057L9.61409 4.44882L10.7018 4.39682C11.634 4.35634 12.5669 4.33539 13.5 4.33398ZM11.3333 10.3736V15.6277C11.3333 16.1282 11.875 16.4402 12.3083 16.1911L16.8583 13.564C16.9573 13.507 17.0396 13.4249 17.0968 13.326C17.154 13.2271 17.1841 13.1149 17.1841 13.0007C17.1841 12.8864 17.154 12.7742 17.0968 12.6753C17.0396 12.5764 16.9573 12.4943 16.8583 12.4373L12.3083 9.81132C12.2095 9.75425 12.0974 9.72422 11.9832 9.72423C11.8691 9.72425 11.757 9.75432 11.6582 9.81142C11.5593 9.86852 11.4773 9.95063 11.4203 10.0495C11.3632 10.1484 11.3333 10.2605 11.3333 10.3747V10.3736Z" fill="#FF0000"/>
</svg>
